<?xml version="1.0" encoding="UTF-8" standalone="no"?>
<svg
   width="112.44302mm"
   height="37.313049mm"
   viewBox="0 0 112.44302 37.313049"
   version="1.1"
   id="svg8"
   inkscape:version="1.1.1 (3bf5ae0d25, 2021-09-20)"
   sodipodi:docname="Viscosity-Measurement.svg"
   xmlns:inkscape="http://www.inkscape.org/namespaces/inkscape"
   xmlns:sodipodi="http://sodipodi.sourceforge.net/DTD/sodipodi-0.dtd"
   xmlns="http://www.w3.org/2000/svg"
   xmlns:svg="http://www.w3.org/2000/svg"
   xmlns:rdf="http://www.w3.org/1999/02/22-rdf-syntax-ns#"
   xmlns:cc="http://creativecommons.org/ns#"
   xmlns:dc="http://purl.org/dc/elements/1.1/">
  <defs
     id="defs2">
    <marker
       inkscape:stockid="Arrow1Mstart"
       orient="auto"
       refY="0"
       refX="0"
       id="Arrow1Mstart"
       style="overflow:visible"
       inkscape:isstock="true">
      <path
         id="path851"
         d="M 0,0 5,-5 -12.5,0 5,5 Z"
         style="fill:#000000;fill-opacity:1;fill-rule:evenodd;stroke:#000000;stroke-width:1pt;stroke-opacity:1"
         transform="matrix(0.4,0,0,0.4,4,0)" />
    </marker>
    <marker
       inkscape:stockid="Arrow1Mend"
       orient="auto"
       refY="0"
       refX="0"
       id="Arrow1Mend"
       style="overflow:visible"
       inkscape:isstock="true">
      <path
         id="path854"
         d="M 0,0 5,-5 -12.5,0 5,5 Z"
         style="fill:#000000;fill-opacity:1;fill-rule:evenodd;stroke:#000000;stroke-width:1pt;stroke-opacity:1"
         transform="matrix(-0.4,0,0,-0.4,-4,0)" />
    </marker>
    <marker
       inkscape:stockid="Arrow1Send"
       orient="auto"
       refY="0"
       refX="0"
       id="Arrow1Send"
       style="overflow:visible"
       inkscape:isstock="true">
      <path
         id="path860"
         d="M 0,0 5,-5 -12.5,0 5,5 Z"
         style="fill:#000000;fill-opacity:1;fill-rule:evenodd;stroke:#000000;stroke-width:1pt;stroke-opacity:1"
         transform="matrix(-0.2,0,0,-0.2,-1.2,0)" />
    </marker>
    <marker
       inkscape:stockid="Arrow1Lend"
       orient="auto"
       refY="0"
       refX="0"
       id="Arrow1Lend"
       style="overflow:visible"
       inkscape:isstock="true">
      <path
         id="path848"
         d="M 0,0 5,-5 -12.5,0 5,5 Z"
         style="fill:#000000;fill-opacity:1;fill-rule:evenodd;stroke:#000000;stroke-width:1pt;stroke-opacity:1"
         transform="matrix(-0.8,0,0,-0.8,-10,0)" />
    </marker>
  </defs>
  <sodipodi:namedview
     id="base"
     pagecolor="#ffffff"
     bordercolor="#666666"
     borderopacity="1.0"
     inkscape:pageopacity="0.0"
     inkscape:pageshadow="2"
     inkscape:zoom="2.1089996"
     inkscape:cx="140.82506"
     inkscape:cy="85.111443"
     inkscape:document-units="mm"
     inkscape:current-layer="layer1"
     inkscape:document-rotation="0"
     showgrid="false"
     inkscape:window-width="1920"
     inkscape:window-height="1027"
     inkscape:window-x="-8"
     inkscape:window-y="-8"
     inkscape:window-maximized="1"
     inkscape:pagecheckerboard="0"
     fit-margin-top="2"
     lock-margins="true"
     fit-margin-left="2"
     fit-margin-right="2"
     fit-margin-bottom="2" />
  <metadata
     id="metadata5">
    <rdf:RDF>
      <cc:Work
         rdf:about="">
        <dc:format>image/svg+xml</dc:format>
        <dc:type
           rdf:resource="http://purl.org/dc/dcmitype/StillImage" />
      </cc:Work>
    </rdf:RDF>
  </metadata>
  <g
     inkscape:label="レイヤー 1"
     inkscape:groupmode="layer"
     id="layer1"
     transform="translate(-58.985226,-40.202582)">
    <ellipse
       ry="3.5242472"
       rx="32.555542"
       cy="69.933701"
       cx="115.77338"
       id="path923"
       style="fill:#0eeaff;fill-opacity:1;stroke:#0eeaff;stroke-width:0.914742;stroke-linecap:square;stroke-linejoin:round;stroke-miterlimit:4;stroke-dasharray:none;stroke-opacity:1;paint-order:markers fill stroke" />
    <rect
       style="fill:#a6a6a6;fill-opacity:1;stroke:none;stroke-width:0.750001;stroke-linejoin:round;paint-order:markers fill stroke"
       id="rect833"
       width="62.933037"
       height="5.6696429"
       x="84.288696"
       y="61.988094" />
    <rect
       style="fill:#b6b6b6;fill-opacity:1;stroke:none;stroke-width:0.61702;stroke-linejoin:round;paint-order:markers fill stroke"
       id="rect835"
       width="18.520834"
       height="9.7212801"
       x="105.83333"
       y="44.329315" />
    <path
       style="fill:none;fill-opacity:1;stroke:#c7c7c7;stroke-width:0.75;stroke-linecap:round;stroke-linejoin:round;stroke-miterlimit:4;stroke-dasharray:none;stroke-opacity:1"
       d="m 84.288695,61.988093 21.544635,-7.9375 m 18.52083,10e-7 c 22.67858,7.937501 22.86758,7.9375 22.86758,7.9375"
       id="path837" />
    <path
       style="fill:#000000;fill-opacity:0;stroke:none;stroke-width:2.02475;stroke-linejoin:round;stroke-opacity:1;paint-order:markers fill stroke"
       d="m 323.37229,233.63749 c 0.16369,-0.16321 17.84594,-6.75249 39.29388,-14.64285 l 38.99626,-14.34612 33.50374,0.0238 33.50374,0.0238 41.78572,14.59238 41.78571,14.59238 -114.58333,0.0267 c -63.02084,0.0147 -114.44941,-0.10686 -114.28572,-0.27007 z"
       id="path839"
       transform="scale(0.26458333)" />
    <rect
       style="fill:#a6a6a6;fill-opacity:1;stroke:#a6a6a6;stroke-width:0.750001;stroke-linejoin:round;stroke-opacity:1;paint-order:markers fill stroke"
       id="rect841"
       width="78.619049"
       height="2.2678571"
       x="76.315132"
       y="71.658318" />
    <path
       id="path1134"
       style="fill:none;fill-opacity:1;stroke:#000000;stroke-width:0.799004;stroke-linejoin:round;stroke-miterlimit:4;stroke-dasharray:none;stroke-opacity:1;marker-start:url(#Arrow1Mstart);paint-order:markers fill stroke"
       d="m 134.95102,49.086019 c -3.41636,1.548892 -10.54475,2.529205 -18.35841,2.524693 -11.27253,-0.0066 -20.159021,-1.744262 -20.157901,-4.231922 0.0011,-2.48766 8.889431,-4.783202 20.161961,-4.776692 0.67579,3.89e-4 1.35114,0.0082 2.0236,0.02335"
       sodipodi:nodetypes="csssc" />
    <path
       style="fill:none;stroke:none;stroke-width:0.264583px;stroke-linecap:butt;stroke-linejoin:miter;stroke-opacity:1"
       d="m 84.288695,67.657736 v 0"
       id="path1275" />
    <path
       style="fill:none;stroke:none;stroke-width:0.264583px;stroke-linecap:butt;stroke-linejoin:miter;stroke-opacity:1"
       d="m 147.22174,67.657736 3.82539,2.722197"
       id="path1277" />
    <path
       style="fill:none;stroke:none;stroke-width:0.264583px;stroke-linecap:butt;stroke-linejoin:miter;stroke-opacity:1"
       d="M 84.288695,67.657736 82.17265,70.505388"
       id="path1279" />
    <path
       style="fill:none;fill-opacity:1;stroke:none;stroke-width:1.34407;stroke-linejoin:round;stroke-miterlimit:4;stroke-dasharray:none;stroke-opacity:1;paint-order:markers fill stroke"
       d="m 282.44599,270.00556 c -0.52428,-1.95635 -0.32129,-8.20561 0.29364,-9.04047 0.55558,-0.75426 9.93255,-0.79706 149.71554,-0.68332 l 149.12284,0.12134 v 5.21574 5.21575 l -149.42296,0.11928 -149.42296,0.11928 z"
       id="path1281"
       transform="scale(0.26458333)" />
    <path
       style="fill:none;fill-opacity:1;stroke:none;stroke-width:0.2376;stroke-linejoin:round;stroke-miterlimit:4;stroke-dasharray:none;stroke-opacity:1;paint-order:markers fill stroke"
       d="m 327.19637,257.86763 v -2.13741 h 89.56184 89.56185 v 2.13741 2.13742 h -89.56185 -89.56184 z"
       id="path1283"
       transform="scale(0.26458333)" />
    <path
       style="fill:none;fill-opacity:1;stroke:none;stroke-width:0.2376;stroke-linejoin:round;stroke-miterlimit:4;stroke-dasharray:none;stroke-opacity:1;paint-order:markers fill stroke"
       d="m 327.19637,257.86763 v -2.13741 h 89.56184 89.56185 v 2.13741 2.13742 h -89.56185 -89.56184 z"
       id="path1285"
       transform="scale(0.26458333)" />
    <path
       style="fill:none;fill-opacity:1;stroke:none;stroke-width:0.2376;stroke-linejoin:round;stroke-miterlimit:4;stroke-dasharray:none;stroke-opacity:1;paint-order:markers fill stroke"
       d="m 327.19637,257.86763 v -2.13741 h 89.56184 89.56185 v 2.13741 2.13742 h -89.56185 -89.56184 z"
       id="path1287"
       transform="scale(0.26458333)" />
    <path
       style="fill:none;fill-opacity:1;stroke:none;stroke-width:0.2376;stroke-linejoin:round;stroke-miterlimit:4;stroke-dasharray:none;stroke-opacity:1;paint-order:markers fill stroke"
       d="m 327.19637,257.86763 v -2.13741 h 89.56184 89.56185 v 2.13741 2.13742 h -89.56185 -89.56184 z"
       id="path1289"
       transform="scale(0.26458333)" />
    <path
       style="fill:#a6a6a6;fill-opacity:1;stroke:none;stroke-width:0.2376;stroke-linejoin:round;stroke-miterlimit:4;stroke-dasharray:none;stroke-opacity:1;paint-order:markers fill stroke"
       d="m 321.40735,233.82982 c 0.54791,-0.20648 1.00472,-0.3648 1.01513,-0.35182 0.0104,0.013 0.0435,0.18392 0.0735,0.37985 l 0.0546,0.35623 -1.0697,-0.004 -1.0697,-0.004 z"
       id="path1323"
       transform="scale(0.26458333)" />
    <text
       xml:space="preserve"
       style="font-size:7.05556px;line-height:1.25;font-family:'Times New Roman';-inkscape-font-specification:'Times New Roman, ';letter-spacing:0px;stroke-width:0.264583"
       x="60.640717"
       y="73.992897"
       id="text1329"><tspan
         sodipodi:role="line"
         id="tspan1327"
         x="60.640717"
         y="73.992897"
         style="font-size:7.05556px;stroke-width:0.264583">stage</tspan></text>
    <text
       id="text1329-6"
       y="67.657318"
       x="149.64305"
       style="font-size:7.05556px;line-height:1.25;font-family:'Times New Roman';-inkscape-font-specification:'Times New Roman, ';letter-spacing:0px;stroke-width:0.264583"
       xml:space="preserve"><tspan
         style="font-size:7.05556px;stroke-width:0.264583"
         y="67.657318"
         x="149.64305"
         id="tspan1327-1"
         sodipodi:role="line">sample</tspan></text>
    <path
       style="fill:none;stroke:#000000;stroke-width:0.279618px;stroke-linecap:butt;stroke-linejoin:miter;stroke-opacity:1"
       d="m 150.64967,68.398653 c -2.28118,1.146242 -2.28118,1.146242 -2.28118,1.146242"
       id="path1349" />
    <text
       xml:space="preserve"
       style="font-size:7.05556px;line-height:1.25;font-family:'Times New Roman';-inkscape-font-specification:'Times New Roman, ';letter-spacing:0px;stroke-width:0.264583"
       x="72.022705"
       y="55.525951"
       id="text1353"><tspan
         sodipodi:role="line"
         id="tspan1351"
         x="72.022705"
         y="55.525951"
         style="font-size:7.05556px;stroke-width:0.264583">cone rotor</tspan></text>
    <path
       id="path893"
       d="m 84.288695,67.657736 31.122595,3.043875 31.81045,-3.043875 H 84.288695"
       style="fill:#737373;fill-opacity:1;stroke:none;stroke-width:0.264583px;stroke-linecap:butt;stroke-linejoin:miter;stroke-opacity:1" />
    <path
       transform="scale(0.26458333)"
       id="path919"
       d="m 325.11378,233.59973 c 0.46101,-0.18574 17.66091,-6.52695 38.22199,-14.09158 22.93623,-8.43847 37.59893,-14.00103 37.94046,-14.39339 0.54066,-0.62113 1.5128,-0.63952 33.8096,-0.63952 32.70756,0 33.26208,0.0109 33.80961,0.66254 0.51573,0.61384 12.6861,4.93754 68.78628,24.43733 l 12.57302,4.37025 -112.98958,-0.004 c -76.20234,-0.003 -112.71668,-0.11391 -112.15138,-0.34166 z"
       style="fill:#c7c7c7;fill-opacity:1;stroke:#c7c7c7;stroke-width:0.950402;stroke-linecap:square;stroke-linejoin:round;stroke-miterlimit:4;stroke-dasharray:none;stroke-opacity:1;paint-order:markers fill stroke" />
  </g>
</svg>
